<svg width="955" height="321" viewBox="0 0 955 321" fill="none" xmlns="http://www.w3.org/2000/svg">
<path fill-rule="evenodd" clip-rule="evenodd" d="M891.142 4.672C882.145 6.988 874.647 9.02099 874.48 9.19099C874.312 9.36099 873.798 19.4 873.338 31.5L872.5 53.5L859.75 53.78L847 54.06V62.03V70H859.432H871.863L872.238 118.25C872.594 164.07 872.722 166.894 874.785 174.325C878.941 189.301 885.769 197.883 896.853 202.063C907.476 206.07 925.046 205.629 938.445 201.019C946.429 198.272 955 193.823 955 192.426C955 191.212 949.184 177.081 947.02 173.038C945.976 171.086 945.697 171.153 937.913 175.228C931.226 178.729 928.917 179.438 924.098 179.466C914.15 179.525 910.708 175.938 908.932 163.663C908.441 160.273 908.031 137.813 908.02 113.75L908 70H929H950V62.02V54.041L929.25 53.77L908.5 53.5L908 26.981L907.5 0.462006L891.142 4.672ZM417.667 1.66701C417.3 2.03301 417 47.258 417 102.167V202H483.5H550V189.5V177H503H456V143.011V109.023L496.25 108.761L536.5 108.5L536.782 96.75L537.063 85H496.532H456V55.5V26H502.5H549V13.5V1H483.667C447.733 1 418.033 1.30001 417.667 1.66701ZM84.045 14.25C79.934 24.632 46.825 109.62 30.136 152.633C25.199 165.357 20.27 177.507 19.182 179.633C16.164 185.537 9.623 192.415 5.081 194.464C1.826 195.931 1 196.829 1 198.902V201.5L26.75 201.291L52.5 201.083L52.802 198.689C53.084 196.453 52.709 196.254 47.073 195.665C30.664 193.95 26.013 185.573 31.346 167.336C32.767 162.476 36.593 151.75 39.848 143.5L45.767 128.5L78.841 128.237C110.158 127.987 111.968 128.072 112.906 129.825C114.855 133.467 131.849 179.681 132.485 183.067C133.295 187.387 131.794 191.492 128.798 193.149C127.534 193.847 123.575 194.912 120 195.515C114.277 196.48 113.5 196.877 113.5 198.835V201.059H145.5H177.5V198.88C177.5 197.24 176.522 196.363 173.544 195.332C167.454 193.223 162.265 187.48 159.24 179.5C158.029 176.307 139.079 127.78 127.022 97C123.037 86.825 117.195 71.75 114.04 63.5C95.662 15.439 91.623 6 89.435 6C87.708 6 86.705 7.535 84.045 14.25ZM342.032 10.167C339.024 11.19 333.512 12.31 329.782 12.657L323 13.287V37.144V61H310H297V63.5V66H310H323L323.031 116.25C323.048 143.887 323.493 169.825 324.021 173.888C326.328 191.659 336.255 202.695 351.852 204.828C374.223 207.888 388.286 197.878 394.358 174.575C396.092 167.919 395.873 167 392.556 167C390.637 167 389.932 167.912 388.527 172.207C385.802 180.539 382.451 186.36 378.134 190.26C368.818 198.677 355.889 196.996 350.214 186.631C348.66 183.792 348.473 178.013 348.212 124.75L347.924 66H368.462H389V63.5V61H368.516H348.033L347.766 34.654L347.5 8.308L342.032 10.167ZM92.833 76.016C99.966 94.982 106.746 112.879 107.901 115.787C109.055 118.695 110 121.507 110 122.037C110 122.633 98.385 123 79.5 123C52.631 123 49 122.816 49 121.452C49 120.6 53.21 109.012 58.356 95.702C63.503 82.391 70.322 64.632 73.51 56.237C76.699 47.843 79.433 41.1 79.586 41.253C79.739 41.406 85.701 57.049 92.833 76.016ZM615.795 51.438C602.067 53.86 579 62.673 579 65.496C579 66.637 587.287 85.621 588.172 86.505C588.412 86.746 592.635 85.216 597.555 83.106C610.331 77.627 617.853 75.904 631.5 75.333C643.187 74.843 643.643 74.904 649 77.665C656.508 81.535 658.648 85.955 660.2 100.796C660.842 106.939 661.112 112.221 660.801 112.533C660.489 112.844 657.144 112.519 653.367 111.81C642.713 109.811 614.018 110.087 606 112.267C591.038 116.334 578.086 125.752 573.296 136.047C566.493 150.67 568.141 173.624 576.909 186.368C582.774 194.892 592.567 200.742 605.588 203.501C626.71 207.976 645.516 202.883 657.94 189.324C661.285 185.674 664.177 182.871 664.368 183.094C664.559 183.317 665.73 187.663 666.97 192.75L669.224 202H683.168H697.113L696.764 149.25C696.428 98.375 696.336 96.216 694.193 88.5C688.488 67.965 678.707 57.719 659.628 52.297C652.342 50.227 625.631 49.703 615.795 51.438ZM763 51.493C736.328 56.848 722.595 73.99 725.961 97.726C727.15 106.109 728.754 110.098 733.356 116.114C738.76 123.18 745.608 127.036 769.515 136.473C801.401 149.06 804 150.889 804 160.734C804 171.11 798.956 176.733 787.595 179.018C776.363 181.278 754.048 177.266 741.012 170.643L734.331 167.249L730.217 179.081L726.103 190.912L731.302 193.858C748.414 203.553 782.759 207.74 802.5 202.538C826.844 196.122 839.08 179.795 837.801 155.432C836.709 134.622 823.775 123.676 783.5 109.479C774.7 106.376 766.027 102.931 764.226 101.823C759.734 99.057 757.659 94.716 758.264 89.349C758.902 83.689 761.082 80.532 766.265 77.763C770.093 75.717 771.798 75.508 784 75.586C795.611 75.66 798.759 76.049 806.5 78.367C811.45 79.849 817.701 82.185 820.391 83.556C823.081 84.928 825.444 85.889 825.642 85.691C825.84 85.494 827.78 80.345 829.955 74.25C834.29 62.097 834.387 62.692 827.5 59.234C812.069 51.486 781.38 47.803 763 51.493ZM259.882 58.381C250.626 61.688 239.922 71.997 233.779 83.52L230.058 90.5L230.029 74.125L230 57.75L226.75 58.434C217.176 60.45 211.176 60.989 198.25 60.994L184 61V63.371C184 65.454 184.594 65.821 188.88 66.39C195.119 67.217 199.967 70.465 202.5 75.513C204.425 79.35 204.5 81.496 204.5 132.5C204.5 181.826 204.374 185.731 202.684 188.829C200.611 192.628 196.159 194.839 188.835 195.706C184.32 196.241 183.921 196.499 184.198 198.718L184.5 201.144L221.75 201.322L259 201.5V198.75C259 196.371 258.602 196 256.049 196C250.857 196 242.625 193.873 238.38 191.435C230.532 186.927 230.5 186.732 230.5 143.5V105.5L233.358 97.172C238.547 82.053 249.751 68.529 259.899 65.136C264.259 63.679 271.273 63.673 272.726 65.126C273.562 65.962 273.061 66.919 270.79 68.83C262.617 75.707 263.305 89.003 272.067 93.535C276.272 95.709 283.27 95.61 287.191 93.32C295.261 88.607 297.385 75.277 291.419 66.788C286.939 60.414 279.633 56.989 270.636 57.044C266.711 57.068 261.872 57.67 259.882 58.381ZM659.352 131.582C660.79 132.133 661 134.298 661 148.529V164.844L656.25 168.95C653.638 171.208 648.625 174.485 645.112 176.233C639.434 179.057 637.765 179.412 630.112 179.424C623.68 179.435 620.614 178.974 618 177.605C609.411 173.106 605.981 166.366 606.022 154.068C606.067 140.599 612.583 133.646 628 130.618C631.292 129.972 657.234 130.769 659.352 131.582ZM8.394 284.909C2.887 287.409 0 293.236 0 301.848C0 309.365 1.668 313.701 5.941 317.297C8.531 319.476 10.161 320 14.354 320C17.383 320 20.459 319.367 21.719 318.484C23.671 317.117 23.974 317.132 24.818 318.639C25.382 319.647 26.396 320.062 27.376 319.686C28.718 319.171 29 317.401 29 309.488V299.912L21.761 300.206C15.904 300.444 14.46 300.823 14.199 302.189C13.943 303.529 14.771 303.943 18.188 304.189C22.429 304.495 22.505 304.565 22.823 308.46C23.212 313.236 21.35 315 15.92 315C10.522 315 7.747 312.31 7.034 306.388C5.593 294.418 9.665 287.327 17.433 288.28C19.67 288.555 22.253 289.089 23.173 289.467C24.31 289.934 25.208 289.479 25.974 288.048C26.983 286.162 26.732 285.786 23.583 284.47C18.852 282.493 13.364 282.652 8.394 284.909ZM59.732 301.25C56.559 310.738 53.972 318.866 53.982 319.313C53.992 319.761 55.463 319.986 57.25 319.813C60.102 319.538 60.665 318.979 61.845 315.25L63.19 311H69.512H75.833L77.244 315.25C78.465 318.93 79.08 319.542 81.827 319.813C83.572 319.986 85 319.774 85 319.344C85 318.913 82.422 310.785 79.271 301.28L73.543 284H69.521H65.5L59.732 301.25ZM110.443 285.288C110.171 285.997 110.073 293.985 110.224 303.038L110.5 319.5H121.5C132.146 319.5 132.51 319.428 132.82 317.25C133.128 315.076 132.866 315 125.07 315H117V299.5V284H113.969C112.301 284 110.715 284.58 110.443 285.288ZM158.227 301.685L158.5 319.5H169.5C180.146 319.5 180.51 319.428 180.82 317.25C181.128 315.077 180.865 315 173.096 315H165.052L164.776 299.75L164.5 284.5L161.227 284.185L157.953 283.87L158.227 301.685ZM205.443 285.288C205.171 285.997 205.073 293.985 205.224 303.038L205.5 319.5L217.25 319.782L229 320.063V317.532C229 315.021 228.928 315 220.5 315H212V309.044V303.088L219.239 302.794C225.2 302.552 226.538 302.191 226.813 300.75C227.107 299.207 226.244 299 219.521 299H211.895L212.198 293.75L212.5 288.5L220.75 288.21C228.178 287.948 229 287.724 229 285.96C229 284.127 228.254 284 217.469 284C208.983 284 205.807 284.34 205.443 285.288ZM254.798 284.662C254.436 285.371 254.505 316.037 254.875 319C254.944 319.55 256.35 320 258 320H261V312V304L265.75 304.015C272.633 304.038 273.422 304.87 274 312.712L274.5 319.5L277.75 319.813L281 320.127V314.145C281 306.592 280.481 305.3 276.651 303.319C273.705 301.796 273.654 301.672 275.665 300.928C281.035 298.942 282.544 291.908 278.588 287.306C276.275 284.614 275.751 284.486 265.702 284.162C259.94 283.976 255.034 284.201 254.798 284.662ZM304.338 284.75C304.589 285.163 306.956 290.225 309.599 296C313.197 303.861 314.543 308.134 314.952 313C315.494 319.434 315.531 319.5 318.5 319.5C321.47 319.5 321.505 319.435 322.045 313C322.344 309.425 323.309 304.925 324.188 303C325.067 301.075 327.398 296.012 329.368 291.75L332.95 284H329.659C326.493 284 326.218 284.33 322.407 292.711L318.447 301.423L314.565 292.711C310.787 284.231 310.593 284 307.283 284C305.412 284 304.087 284.337 304.338 284.75ZM411.226 301.633L411.5 319.5L417.338 319.803C424.629 320.18 433.289 318.445 435.31 316.202C439.24 311.842 438.565 304.923 433.937 302.108L430.927 300.278L433.464 298.616C437.03 296.279 437.026 290.312 433.455 286.958C431.2 284.839 429.775 284.521 420.932 284.166L410.953 283.765L411.226 301.633ZM464 302V320H475.5H487V317.5C487 315.028 486.903 315 478.45 315H469.9L470.2 309.25L470.5 303.5L477.75 303.206C484.12 302.948 485 302.68 485 301C485 299.32 484.12 299.052 477.75 298.794L470.5 298.5V293.5V288.5L478.75 288.21C486.178 287.948 487 287.724 487 285.96C487 284.127 486.254 284 475.5 284H464V302ZM513 301.972V320.127L516.25 319.813L519.5 319.5L519.792 311.75L520.084 304L524.292 304.015C530.592 304.038 531.431 304.984 532 312.712L532.5 319.5L535.75 319.813L539 320.127V314.145C539 306.586 538.482 305.302 534.629 303.302C532.449 302.17 531.955 301.536 533 301.212C539.143 299.303 541.062 291.288 536.422 286.924C534.096 284.737 532.826 284.467 523.422 284.159L513 283.818V301.972ZM566 301.969V320.066L577.25 319.783C588.057 319.511 588.513 319.411 588.82 317.25C589.128 315.077 588.865 315 581.096 315H573.052L572.776 299.75L572.5 284.5L569.25 284.187L566 283.873V301.969ZM612 285.5C612 286.333 612.889 287 614 287C615.908 287 616 287.667 616 301.5C616 315.333 615.908 316 614 316C612.667 316 612 316.667 612 318C612 319.822 612.667 320 619.5 320C626.333 320 627 319.822 627 318C627 316.667 626.333 316 625 316C623.092 316 623 315.333 623 301.5C623 287.667 623.092 287 625 287C626.111 287 627 286.333 627 285.5C627 284.3 625.5 284 619.5 284C613.5 284 612 284.3 612 285.5ZM653 302.066V320.133L655.75 319.816L658.5 319.5L659 306.5L659.5 293.5L667.494 306.75C675.126 319.401 675.635 320 678.744 320C680.916 320 682.042 319.501 682.125 318.5C682.491 314.114 682.553 286.316 682.2 285.25C681.972 284.563 680.498 284 678.923 284H676.06L675.78 296.655L675.5 309.309L668.048 296.655L660.597 284H656.798H653V302.066ZM782.227 301.75L782.5 319.5H785.5H788.5L788.792 311.75C789.014 305.856 789.424 304 790.505 304C791.287 304 794.543 307.488 797.742 311.75C802.631 318.266 804.069 319.55 806.778 319.813C808.55 319.986 810 319.676 810 319.125C810 318.574 807.3 314.54 804 310.16C800.7 305.781 798 301.908 798 301.554C798 301.2 800.17 297.668 802.823 293.705C809.784 283.306 809.58 284 805.685 284C802.497 284 801.876 284.573 796.978 292.034C794.077 296.453 791.208 299.904 790.602 299.704C789.963 299.492 789.377 296.118 789.208 291.67L788.916 284H785.435H781.954L782.227 301.75ZM832 284.42C832 284.651 834.475 290.107 837.5 296.545C842.235 306.622 843 309.076 843 314.188V320.127L846.25 319.813L849.5 319.5L850.054 312.5C850.494 306.934 851.57 303.477 855.304 295.625C857.887 290.194 860 285.328 860 284.812C860 284.296 858.617 284.014 856.926 284.187C854.166 284.468 853.543 285.214 850.814 291.5C849.142 295.35 847.381 298.922 846.899 299.438C846.381 299.994 844.491 297.045 842.262 292.201C838.684 284.425 838.341 284.026 835.25 284.013C833.462 284.006 832 284.189 832 284.42ZM883 285.5C883 286.333 883.889 287 885 287C886.908 287 887 287.667 887 301.5C887 315.333 886.908 316 885 316C883.667 316 883 316.667 883 318C883 319.822 883.667 320 890.5 320C897.333 320 898 319.822 898 318C898 316.667 897.333 316 896 316C894.092 316 894 315.333 894 301.5C894 287.667 894.092 287 896 287C897.111 287 898 286.333 898 285.5C898 284.3 896.5 284 890.5 284C884.5 284 883 284.3 883 285.5ZM922 284.822C922 285.275 924.413 293.262 927.362 302.572L932.724 319.5H936.003C937.892 319.5 939.625 318.864 940.09 318C940.535 317.175 942.955 309.878 945.467 301.785C947.98 293.692 950.301 286.38 950.625 285.535C951.084 284.339 950.458 284 947.797 284H944.38L941.029 295.75C939.186 302.212 937.354 308.136 936.958 308.913C936.519 309.775 934.623 305.202 932.089 297.163C927.991 284.166 927.902 284 924.97 284C923.336 284 922 284.37 922 284.822ZM271.777 289.557C274.454 291.431 274.662 295.091 272.218 297.302C271.239 298.189 268.426 299.046 265.968 299.207L261.5 299.5L261.187 295.136C261.015 292.735 261.113 290.148 261.406 289.386C262.134 287.487 268.984 287.6 271.777 289.557ZM427.453 289.161C429.273 289.99 430 291.097 430 293.038C430 296.604 427.993 298.134 422.499 298.753L418 299.26V293.63V288H421.453C423.352 288 426.052 288.522 427.453 289.161ZM529.777 289.557C532.018 291.126 532.652 294.425 531.164 296.768C530.323 298.095 524.776 300 521.757 300C520.276 300 520 299.056 520 294V288H523.777C525.855 288 528.555 288.701 529.777 289.557ZM72.806 301.25L74.806 308H69.508H64.21L66.125 301.75C68.895 292.712 68.966 292.56 69.936 293.583C70.415 294.087 71.706 297.538 72.806 301.25ZM429.171 304.655C431.726 306.967 431.522 311.521 428.777 313.443C427.555 314.299 424.63 315 422.277 315H418V309V303H422.671C425.615 303 428.019 303.612 429.171 304.655Z" fill="#f5f5f5"/>
</svg>
